<svg width="35" height="36" viewBox="0 0 35 36" fill="none" xmlns="http://www.w3.org/2000/svg">
<path d="M30.7539 0.880859H28.3032C27.3281 0.880859 26.3933 1.26816 25.7037 1.95742C25.0144 2.64696 24.6271 3.58183 24.6271 4.55693V31.5148C24.6271 32.4899 25.0144 33.4247 25.7037 34.1143C26.3932 34.8036 27.3281 35.1909 28.3032 35.1909H30.7539C31.729 35.1909 32.6639 34.8036 33.3534 34.1143C34.0427 33.4248 34.43 32.4899 34.43 31.5148V4.55693C34.43 3.58183 34.0427 2.64698 33.3534 1.95742C32.6639 1.26816 31.729 0.880859 30.7539 0.880859ZM31.9793 31.5148C31.9793 31.8397 31.8502 32.1515 31.6204 32.3813C31.3907 32.611 31.0789 32.7401 30.7539 32.7401H28.3032C27.9783 32.7401 27.6665 32.611 27.4367 32.3813C27.207 32.1515 27.0779 31.8397 27.0779 31.5148V4.55693C27.0779 4.23199 27.207 3.92018 27.4367 3.69043C27.6665 3.46068 27.9783 3.33157 28.3032 3.33157H30.7539C31.0789 3.33157 31.3907 3.46068 31.6204 3.69043C31.8502 3.92018 31.9793 4.23199 31.9793 4.55693V31.5148ZM18.5004 10.6837H16.0496C15.0745 10.6837 14.1397 11.071 13.4501 11.7603C12.7609 12.4498 12.3736 13.3847 12.3736 14.3598V31.5148C12.3736 32.4899 12.7609 33.4247 13.4501 34.1143C14.1397 34.8036 15.0745 35.1909 16.0496 35.1909H18.5004C19.4755 35.1909 20.4103 34.8036 21.0999 34.1143C21.7891 33.4248 22.1764 32.4899 22.1764 31.5148V14.3598C22.1764 13.3847 21.7891 12.4498 21.0999 11.7603C20.4103 11.071 19.4755 10.6837 18.5004 10.6837ZM19.7257 31.5148C19.7257 31.8397 19.5966 32.1515 19.3669 32.3813C19.1371 32.611 18.8253 32.7401 18.5004 32.7401H16.0496C15.7247 32.7401 15.4129 32.611 15.1831 32.3813C14.9534 32.1515 14.8243 31.8397 14.8243 31.5148V14.3598C14.8243 14.0349 14.9534 13.723 15.1831 13.4933C15.4129 13.2635 15.7247 13.1344 16.0496 13.1344H18.5004C18.8253 13.1344 19.1371 13.2635 19.3669 13.4933C19.5966 13.723 19.7257 14.0349 19.7257 14.3598V31.5148ZM6.24678 18.0359H3.79607C2.82096 18.0359 1.88612 18.4232 1.19656 19.1124C0.507292 19.802 0.119995 20.7368 0.119995 21.7119V31.5148C0.119995 32.4899 0.507292 33.4247 1.19656 34.1143C1.8861 34.8036 2.82096 35.1909 3.79607 35.1909H6.24678C7.22189 35.1909 8.15673 34.8036 8.84629 34.1143C9.53556 33.4248 9.92285 32.4899 9.92285 31.5148V21.7119C9.92285 20.7368 9.53556 19.802 8.84629 19.1124C8.15675 18.4232 7.22189 18.0359 6.24678 18.0359ZM7.47214 31.5148C7.47214 31.8397 7.34303 32.1515 7.11328 32.3813C6.88353 32.611 6.57172 32.7401 6.24678 32.7401H3.79607C3.47113 32.7401 3.15931 32.611 2.92956 32.3813C2.69981 32.1515 2.57071 31.8397 2.57071 31.5148V21.7119C2.57071 21.387 2.69981 21.0752 2.92956 20.8454C3.15931 20.6157 3.47113 20.4866 3.79607 20.4866H6.24678C6.57172 20.4866 6.88353 20.6157 7.11328 20.8454C7.34303 21.0752 7.47214 21.387 7.47214 21.7119V31.5148Z" fill="black"/>
</svg>
