<svg width="32" height="33" viewBox="0 0 32 33" fill="none" xmlns="http://www.w3.org/2000/svg">
<path d="M29.5718 10.0632H17.5503V3.22738C17.5503 1.97028 16.5288 0.870117 15.193 0.870117H2.85726C1.52152 0.870117 0.5 1.97022 0.5 3.22738V29.9417C0.5 31.2774 1.52152 32.2989 2.85726 32.2989H29.5715C30.9073 32.2989 31.9288 31.2774 31.9288 29.9417V12.4202C31.9288 11.0845 30.9073 10.063 29.5715 10.063L29.5718 10.0632ZM5.45035 30.7275V26.2489C5.45035 25.8561 5.76456 25.4632 6.23604 25.4632H8.20018L8.20042 30.7275L5.45035 30.7275ZM12.522 30.7275H9.77194V25.4633H11.7361C12.2075 25.4633 12.5218 25.8561 12.5218 26.249L12.522 30.7275ZM15.9791 30.7275H14.172V26.2489C14.172 24.9132 13.1505 23.8916 11.8147 23.8916H6.31482C4.97907 23.8916 3.95755 24.9132 3.95755 26.2489V30.7275H2.85769C2.46486 30.7275 2.072 30.4133 2.072 29.9418V3.22756C2.072 2.75612 2.46484 2.44187 2.85769 2.44187H15.1934C15.5863 2.44187 15.9791 2.75609 15.9791 3.22756V30.7275ZM30.3577 29.9418C30.3577 30.4133 29.9648 30.7275 29.572 30.7275H17.5505V11.635H29.572C29.9648 11.635 30.3577 12.0278 30.3577 12.4207V29.9418Z" fill="black"/>
<path d="M13.308 6.21299H4.66521C4.19376 6.21299 3.87952 5.89877 3.87952 5.42729C3.87952 4.95585 4.19373 4.6416 4.66521 4.6416H13.308C13.7795 4.6416 14.0937 4.95582 14.0937 5.42729C14.0937 5.89874 13.7795 6.21299 13.308 6.21299Z" fill="black"/>
<path d="M13.308 10.1427H4.66521C4.19376 10.1427 3.87952 9.82846 3.87952 9.35698C3.87952 8.88553 4.19373 8.57129 4.66521 8.57129H13.308C13.7795 8.57129 14.0937 8.8855 14.0937 9.35698C14.0937 9.82843 13.7795 10.1427 13.308 10.1427Z" fill="black"/>
<path d="M13.308 14.0704H4.66521C4.19376 14.0704 3.87952 13.7562 3.87952 13.2847C3.87952 12.8132 4.19373 12.499 4.66521 12.499H13.308C13.7795 12.499 14.0937 12.8132 14.0937 13.2847C14.0937 13.7562 13.7795 14.0704 13.308 14.0704Z" fill="black"/>
<path d="M13.308 17.9991H4.66521C4.19376 17.9991 3.87952 17.6849 3.87952 17.2134C3.87952 16.742 4.19373 16.4277 4.66521 16.4277H13.308C13.7795 16.4277 14.0937 16.742 14.0937 17.2134C14.0937 17.6846 13.7795 17.9991 13.308 17.9991Z" fill="black"/>
<path d="M28.2365 15.6417H19.5937C19.1223 15.6417 18.808 15.3275 18.808 14.856C18.808 14.3845 19.1223 14.0703 19.5937 14.0703H28.2365C28.708 14.0703 29.0222 14.3845 29.0222 14.856C29.0222 15.3275 28.708 15.6417 28.2365 15.6417Z" fill="black"/>
<path d="M28.2365 19.5704H19.5937C19.1223 19.5704 18.808 19.2562 18.808 18.7847C18.808 18.3132 19.1223 17.999 19.5937 17.999H28.2365C28.708 17.999 29.0222 18.3132 29.0222 18.7847C29.0222 19.2562 28.708 19.5704 28.2365 19.5704Z" fill="black"/>
<path d="M28.2365 23.4991H19.5937C19.1223 23.4991 18.808 23.1849 18.808 22.7134C18.808 22.242 19.1223 21.9277 19.5937 21.9277H28.2365C28.708 21.9277 29.0222 22.242 29.0222 22.7134C29.0222 23.1849 28.708 23.4991 28.2365 23.4991Z" fill="black"/>
</svg>
