<svg width="34" height="30" viewBox="0 0 34 30" fill="none" xmlns="http://www.w3.org/2000/svg">
<path d="M30.1698 0.0703125H3.76389C2.77672 0.0720625 1.83068 0.46206 1.13265 1.15478C0.43468 1.84752 0.0417191 2.78652 0.039978 3.76629V25.4941C0.0417413 26.4739 0.434687 27.4128 1.13265 28.1056C1.83062 28.7984 2.77672 29.1884 3.76389 29.1901H30.1698C31.157 29.1884 32.103 28.7984 32.8011 28.1056C33.499 27.4129 33.892 26.4739 33.8937 25.4941V3.76629C33.892 2.78652 33.499 1.84758 32.8011 1.15478C32.1031 0.462054 31.157 0.0720405 30.1698 0.0703125V0.0703125ZM31.6368 25.4941C31.6368 25.8804 31.4822 26.2506 31.2071 26.5236C30.932 26.7966 30.559 26.9501 30.1698 26.9501H3.76388C3.37471 26.9501 3.00169 26.7966 2.7266 26.5236C2.45154 26.2506 2.29688 25.8804 2.29688 25.4941V9.03025H31.6368L31.6368 25.4941ZM31.6368 6.79026H2.29689V3.76629C2.29689 3.38004 2.45155 3.00981 2.72662 2.73679C3.00168 2.46379 3.37474 2.31029 3.7639 2.31029H30.1698C30.559 2.31029 30.932 2.46379 31.2071 2.73679C31.4822 3.00979 31.6368 3.38005 31.6368 3.76629L31.6368 6.79026Z" fill="black"/>
<path d="M6.81081 4.55066C6.81081 5.16915 6.30553 5.67065 5.68235 5.67065C5.05918 5.67065 4.55389 5.16915 4.55389 4.55066C4.55389 3.93216 5.05918 3.43066 5.68235 3.43066C6.30553 3.43066 6.81081 3.93216 6.81081 4.55066Z" fill="black"/>
<path d="M10.1961 4.55066C10.1961 5.16915 9.69084 5.67065 9.06767 5.67065C8.44449 5.67065 7.93921 5.16915 7.93921 4.55066C7.93921 3.93216 8.44449 3.43066 9.06767 3.43066C9.69084 3.43066 10.1961 3.93216 10.1961 4.55066Z" fill="black"/>
<path d="M13.5816 4.55066C13.5816 5.16915 13.0763 5.67065 12.4531 5.67065C11.8299 5.67065 11.3246 5.16915 11.3246 4.55066C11.3246 3.93216 11.8299 3.43066 12.4531 3.43066C13.0763 3.43066 13.5816 3.93216 13.5816 4.55066Z" fill="black"/>
<path d="M14.2876 22.1424C14.4994 22.3524 14.7863 22.4704 15.0856 22.4704C15.3848 22.4704 15.6717 22.3524 15.8833 22.1424L23.4066 14.6755C23.6245 14.4668 23.7484 14.18 23.7512 13.8798C23.7537 13.5793 23.6348 13.2905 23.4207 13.078C23.2066 12.8655 22.9157 12.7475 22.6129 12.75C22.3104 12.7525 22.0212 12.8758 21.8111 13.0918L15.0855 19.7669L12.122 16.826C11.8354 16.5512 11.4241 16.4467 11.0397 16.5515C10.6556 16.656 10.3553 16.954 10.2498 17.3355C10.1445 17.7167 10.2498 18.1252 10.5266 18.4097L14.2876 22.1424Z" fill="black"/>
</svg>
