<svg width="43" height="43" viewBox="0 0 43 43" fill="none" xmlns="http://www.w3.org/2000/svg">
<path d="M31.9347 11.2899L32.058 10.9741L31.7414 11.0953L2.17637 22.4103L1.81838 22.5473L2.17427 22.6896L14.888 27.7751L19.9747 41.2184L20.1128 41.5835L20.2547 41.2199L31.9347 11.2899Z" fill="#95CC64" stroke="white" stroke-width="0.3"/>
<path d="M33.7643 10.5874L33.7678 10.5785L33.7702 10.5691C33.8612 10.2055 33.8744 9.78986 33.5575 9.47294C33.2597 9.1752 32.847 9.06623 32.4365 9.26867C19.4807 14.43 11.8168 17.3579 7.28248 19.0902C6.22087 19.4958 5.33081 19.8358 4.58454 20.1236C2.62336 20.88 1.64223 21.2804 1.15389 21.5643C0.909333 21.7064 0.763153 21.8329 0.687644 21.9816C0.618769 22.1172 0.619416 22.2553 0.619985 22.3769C0.620036 22.3878 0.620086 22.3985 0.620086 22.4091C0.620086 22.6188 0.697982 22.8214 0.809279 22.9822C0.918844 23.1405 1.07164 23.2736 1.23958 23.3305L14.6114 28.4205C16.6893 33.6682 17.8652 36.936 18.5978 38.9719C18.7911 39.5091 18.9536 39.9606 19.0936 40.34C19.427 41.2435 19.6399 41.759 19.8469 42.0448C19.9547 42.1936 20.068 42.2909 20.2043 42.3469C20.3367 42.4012 20.4765 42.4102 20.6213 42.4102H20.6234C20.7131 42.4103 21.3336 42.4106 21.5424 41.7914L33.7643 10.5874ZM15.7302 26.6023L4.48429 22.406L31.1045 12.0116L20.6243 38.5501L16.3415 27.2135C16.2397 26.9111 16.0326 26.704 15.7302 26.6023Z" fill="white" stroke="white" stroke-width="0.3"/>
<path d="M41.5129 0.500391H36.3115C36.0174 0.500391 35.7606 0.599121 35.577 0.782749C35.3933 0.966379 35.2946 1.22317 35.2946 1.51733V6.71873C35.2946 7.01287 35.3933 7.26966 35.5769 7.4533C35.7606 7.63693 36.0174 7.73567 36.3115 7.73567H41.5129C41.8071 7.73567 42.0639 7.63694 42.2475 7.45332C42.4311 7.26969 42.5299 7.01289 42.5299 6.71873V1.51733C42.5299 1.22319 42.4311 0.966403 42.2475 0.782768C42.0639 0.599132 41.8071 0.500391 41.5129 0.500391ZM40.4963 2.53419L40.496 5.70147H37.3284L37.3287 2.53419H40.4963Z" fill="white" stroke="white" stroke-width="0.3"/>
<path d="M30.2437 3.10098H30.0937V3.25098V4.98478V5.13478H30.2437H31.9775H32.1275V4.98478V3.25098V3.10098H31.9775H30.2437Z" fill="white" stroke="white" stroke-width="0.3"/>
<path d="M25.043 3.10098H24.893V3.25098V4.98478V5.13478H25.043H26.7768H26.9268V4.98478V3.25098V3.10098H26.7768H25.043Z" fill="white" stroke="white" stroke-width="0.3"/>
<path d="M19.8413 3.10098H19.6913V3.25098V4.98478V5.13478H19.8413H21.5751H21.7251V4.98478V3.25098V3.10098H21.5751H19.8413Z" fill="white" stroke="white" stroke-width="0.3"/>
<path d="M14.6404 3.10098H14.4904V3.25098V4.98478V5.13478H14.6404H16.3742H16.5242V4.98478V3.25098V3.10098H16.3742H14.6404Z" fill="white" stroke="white" stroke-width="0.3"/>
<path d="M9.43872 3.10098H9.28872V3.25098V4.98478V5.13478H9.43872H11.1725H11.3225V4.98478V3.25098V3.10098H11.1725H9.43872Z" fill="white" stroke="white" stroke-width="0.3"/>
<path d="M4.23779 3.10098H4.08779V3.25098V4.98478V5.13478H4.23779H5.97159H6.12159V4.98478V3.25098V3.10098H5.97159H4.23779Z" fill="white" stroke="white" stroke-width="0.3"/>
<path d="M38.0459 10.9027H37.8959V11.0527V12.7865V12.9365H38.0459H39.7797H39.9297V12.7865V11.0527V10.9027H39.7797H38.0459Z" fill="white" stroke="white" stroke-width="0.3"/>
<path d="M38.0459 16.1039H37.8959V16.2539V17.9877V18.1377H38.0459H39.7797H39.9297V17.9877V16.2539V16.1039H39.7797H38.0459Z" fill="white" stroke="white" stroke-width="0.3"/>
<path d="M38.0459 21.3051H37.8959V21.4551V23.1889V23.3389H38.0459H39.7797H39.9297V23.1889V21.4551V21.3051H39.7797H38.0459Z" fill="white" stroke="white" stroke-width="0.3"/>
<path d="M38.0459 26.5072H37.8959V26.6572V28.391V28.541H38.0459H39.7797H39.9297V28.391V26.6572V26.5072H39.7797H38.0459Z" fill="white" stroke="white" stroke-width="0.3"/>
<path d="M38.0459 31.7074H37.8959V31.8574V33.5912V33.7412H38.0459H39.7797H39.9297V33.5912V31.8574V31.7074H39.7797H38.0459Z" fill="white" stroke="white" stroke-width="0.3"/>
<path d="M38.0459 36.9096H37.8959V37.0596V38.7934V38.9434H38.0459H39.7797H39.9297V38.7934V37.0596V36.9096H39.7797H38.0459Z" fill="white" stroke="white" stroke-width="0.3"/>
</svg>
