<svg width="43" height="43" viewBox="0 0 43 43" fill="none" xmlns="http://www.w3.org/2000/svg">
<path d="M6.824 5.23478C7.30323 5.23478 7.69169 4.84632 7.69169 4.3671C7.69169 3.88794 7.3038 3.49941 6.824 3.49941H4.99674C4.51751 3.49941 4.12905 3.88788 4.12905 4.3671C4.12905 4.84626 4.51695 5.23478 4.99674 5.23478H6.824Z" fill="white" stroke="white" stroke-width="0.3"/>
<path d="M11.867 5.23478C12.3462 5.23478 12.7347 4.84632 12.7347 4.3671C12.7347 3.88794 12.3468 3.49941 11.867 3.49941H10.0397C9.56048 3.49941 9.17202 3.88788 9.17202 4.3671C9.17202 4.84626 9.55991 5.23478 10.0397 5.23478H11.867Z" fill="white" stroke="white" stroke-width="0.3"/>
<path d="M36.3548 5.23478C36.834 5.23478 37.2225 4.84633 37.2225 4.3671C37.2225 3.88794 36.8346 3.49941 36.3548 3.49941H34.5275C34.0483 3.49941 33.6598 3.88788 33.6598 4.3671C33.6598 4.84626 34.0477 5.23478 34.5275 5.23478H36.3548Z" fill="white" stroke="white" stroke-width="0.3"/>
<path d="M5.04892 41.3902L5.04892 41.3903H5.05603H32.9711C33.4503 41.3903 33.8388 41.0018 33.8388 40.5226C33.8388 40.0434 33.4509 39.6549 32.9711 39.6549L5.05602 39.6554C3.35222 39.6554 1.96545 38.2687 1.96545 36.5648V5.32631C1.96545 3.62197 3.35223 2.23522 5.05603 2.23522H36.2946C37.9984 2.23522 39.3851 3.62197 39.3851 5.32631C39.3851 5.80546 39.773 6.19399 40.2528 6.19399C40.732 6.19399 41.1205 5.80553 41.1205 5.32631C41.1205 2.66504 38.9564 0.500391 36.2951 0.500391H5.05528C2.39398 0.500391 0.229883 2.66504 0.229883 5.32631V36.5648C0.229367 39.2235 2.39057 41.3868 5.04892 41.3902Z" fill="white" stroke="white" stroke-width="0.3"/>
<path d="M5.79104 9.10762L5.79124 9.10783H5.42911C4.94978 9.10783 4.56203 8.71929 4.56143 8.24083L4.56143 8.24064C4.56143 7.76142 4.94988 7.37296 5.42911 7.37296L5.79104 9.10762ZM5.79104 9.10762H39.3861V32.6344C39.3861 33.1136 39.774 33.5021 40.2538 33.5021C40.733 33.5021 41.1214 33.1137 41.1214 32.6344V8.24014C41.1214 7.76099 40.7336 7.37246 40.2538 7.37246L5.42911 7.37296L5.79104 9.10762Z" fill="white" stroke="white" stroke-width="0.3"/>
<path d="M40.3267 39.8736C40.437 39.763 40.437 39.5824 40.3267 39.4718L35.4944 34.64C35.1493 35.0402 34.7743 35.4137 34.3712 35.756L39.2069 40.5918L40.3267 39.8736ZM40.3267 39.8736L39.6082 40.5921C39.5032 40.6972 39.3134 40.6972 39.2073 40.5921L40.3267 39.8736ZM37.9465 27.6838C37.7583 22.2674 33.2931 17.9193 27.8317 17.9193C22.2517 17.9193 17.7113 22.4592 17.7113 28.0397C17.7113 33.6203 22.2517 38.1607 27.8317 38.1607C29.6923 38.1607 31.4311 37.6469 32.93 36.7673L37.9814 41.8192L37.9815 41.8192C38.3629 42.2001 38.8705 42.4101 39.4086 42.4101C39.9474 42.4101 40.455 42.1996 40.8355 41.8192L40.7294 41.7131L40.8355 41.8192L41.5542 41.1005L41.5542 41.1004C42.3409 40.3132 42.341 39.0331 41.5542 38.2459L41.5542 38.2458L36.517 33.2091C37.4227 31.6939 37.9527 29.9298 37.9527 28.0397V27.6776L37.9465 27.6838ZM19.4455 28.0397C19.4455 23.4162 23.2075 19.6542 27.8311 19.6542C32.4552 19.6542 36.2172 23.4162 36.2172 28.0397C36.2172 32.6638 32.4552 36.4258 27.8311 36.4258C23.2075 36.4253 19.4455 32.6633 19.4455 28.0397Z" fill="white" stroke="white" stroke-width="0.3"/>
<circle cx="27.7548" cy="28.0253" r="6.205" fill="#95CC64"/>
<path d="M27.832 20.4457C23.6448 20.4457 20.2379 23.852 20.2379 28.0398C20.2379 32.227 23.6442 35.6339 27.832 35.6339C32.0192 35.6339 35.4261 32.2277 35.4261 28.0398C35.4261 23.8521 32.0194 20.4457 27.832 20.4457ZM27.832 33.8984C24.6013 33.8984 21.9734 31.2701 21.9734 28.0398C21.9734 24.8091 24.6018 22.1812 27.832 22.1812C31.0628 22.1812 33.6907 24.8096 33.6907 28.0398C33.6907 31.2701 31.0628 33.8984 27.832 33.8984Z" fill="white" stroke="white" stroke-width="0.3"/>
<path d="M24.262 24.2206C23.4764 24.7863 22.9651 25.6265 22.8225 26.5848C22.7807 26.8629 22.9724 27.1221 23.2507 27.1633L23.2514 27.1634C23.2746 27.1667 23.2999 27.1689 23.3257 27.1689C23.5734 27.1689 23.7907 26.9876 23.8279 26.7352C23.93 26.05 24.2946 25.4509 24.8562 25.0467L24.8562 25.0466C25.0842 24.8824 25.1366 24.5651 24.9714 24.3369C24.8076 24.1078 24.4883 24.0559 24.262 24.2206L24.262 24.2206Z" fill="white" stroke="white" stroke-width="0.3"/>
</svg>
