<svg width="43" height="43" viewBox="0 0 43 43" fill="none" xmlns="http://www.w3.org/2000/svg">
<path d="M3.15308 3.2748H3.00308V3.4248V4.8118V4.9618H3.15308H4.56441H4.71441V4.8118V3.4248V3.2748H4.56441H3.15308Z" fill="white" stroke="white" stroke-width="0.3"/>
<rect x="7.21011" y="21.4799" width="6.87" height="6.87" fill="#95CC64" stroke="white" stroke-width="0.3"/>
<path d="M5.97541 4.96139H41.1087V40.1799C41.1087 40.476 40.8608 40.7234 40.5531 40.7234H2.44708C2.13933 40.7234 1.89141 40.476 1.89141 40.1799V2.73089C1.89141 2.43476 2.13933 2.18739 2.44708 2.18739H40.5531C40.8608 2.18739 41.1087 2.43476 41.1087 2.73089V3.27439H5.97541H5.82541V3.42439V4.81139V4.96139H5.97541ZM40.5531 0.500391H2.44708C1.20232 0.500391 0.180078 1.50128 0.180078 2.73089V40.1799C0.180078 41.4095 1.20232 42.4104 2.44708 42.4104H40.5531C41.7978 42.4104 42.8201 41.4095 42.8201 40.1799V2.73089C42.8201 1.50128 41.7978 0.500391 40.5531 0.500391Z" fill="white" stroke="white" stroke-width="0.3"/>
<path d="M7.09239 20.5316C6.6239 20.5316 6.23672 20.9084 6.23672 21.3751V28.3101C6.23672 28.7769 6.6239 29.1536 7.09239 29.1536H14.1491C14.6175 29.1536 15.0047 28.7769 15.0047 28.3101V21.3751C15.0047 20.9084 14.6175 20.5316 14.1491 20.5316H7.09239ZM13.2934 27.4666H7.94805V22.2186H13.2934V27.4666Z" fill="white" stroke="white" stroke-width="0.3"/>
<path d="M25.8841 21.3751C25.8841 20.9084 25.4969 20.5316 25.0284 20.5316H17.9718C17.5033 20.5316 17.1161 20.9084 17.1161 21.3751V28.3101C17.1161 28.7769 17.5033 29.1536 17.9718 29.1536H25.0284C25.4969 29.1536 25.8841 28.7769 25.8841 28.3101V21.3751ZM24.1728 27.4666H18.8274V22.2186H24.1728V27.4666Z" fill="white" stroke="white" stroke-width="0.3"/>
<rect x="28.9201" y="21.4799" width="6.87" height="6.87" fill="#95CC64" stroke="white" stroke-width="0.3"/>
<path d="M28.8512 20.5316C28.3827 20.5316 27.9955 20.9084 27.9955 21.3751V28.3101C27.9955 28.7769 28.3827 29.1536 28.8512 29.1536H35.9078C36.3763 29.1536 36.7635 28.7769 36.7635 28.3101V21.3751C36.7635 20.9084 36.3763 20.5316 35.9078 20.5316H28.8512ZM35.0522 27.4666H29.7068V22.2186H35.0522V27.4666Z" fill="white" stroke="white" stroke-width="0.3"/>
<path d="M19.3834 31.0141H3.85874C3.39025 31.0141 3.00308 31.3908 3.00308 31.8576V38.7926C3.00308 39.2593 3.39025 39.6361 3.85874 39.6361H19.3834C19.8519 39.6361 20.2391 39.2593 20.2391 38.7926V31.8576C20.2391 31.3908 19.8519 31.0141 19.3834 31.0141ZM18.5277 37.9491H4.71441V32.7011H18.5277V37.9491Z" fill="white" stroke="white" stroke-width="0.3"/>
<path d="M39.1415 31.0141H23.6168C23.1483 31.0141 22.7611 31.3908 22.7611 31.8576V38.7926C22.7611 39.2593 23.1483 39.6361 23.6168 39.6361H39.1415C39.61 39.6361 39.9971 39.2593 39.9971 38.7926V31.8576C39.9971 31.3908 39.61 31.0141 39.1415 31.0141ZM38.2858 37.9491H24.4725V32.7011H38.2858V37.9491Z" fill="white" stroke="white" stroke-width="0.3"/>
<path d="M3.85874 18.4442H39.1421C39.6106 18.4442 39.9977 18.0675 39.9977 17.6007V7.89174C39.9977 7.42503 39.6106 7.04824 39.1421 7.04824H3.85874C3.39025 7.04824 3.00308 7.42503 3.00308 7.89174V17.6007C3.00308 18.0675 3.39025 18.4442 3.85874 18.4442ZM4.71441 8.73524H38.2864V16.7572H4.71441V8.73524Z" fill="white" stroke="white" stroke-width="0.3"/>
</svg>
