<svg width="38" height="38" viewBox="0 0 38 38" fill="none" xmlns="http://www.w3.org/2000/svg">
<rect width="37.1754" height="37.1754" rx="18.5877" fill="#64A12D"/>
<path d="M18.5788 8.36462C16.188 8.36462 14.2248 10.3445 14.2248 12.77C14.2248 15.1954 16.1879 17.1753 18.5788 17.1753C20.9835 17.1753 22.95 15.1954 22.95 12.77C22.95 10.3445 20.9835 8.36462 18.5788 8.36462Z" fill="white"/>
<path d="M18.5817 19.6834C20.659 19.6834 22.7357 20.0762 24.4536 20.8484V20.8481H24.4541C25.7967 21.4502 26.9145 22.2775 27.664 23.2558C28.4135 24.2341 28.8109 25.3188 28.8109 26.6639V28.8112H8.36444V26.6639C8.36444 25.1222 8.88214 23.9076 9.85055 22.8402C10.819 21.7728 12.2482 20.9249 13.9025 20.3861C15.3499 19.9147 16.9657 19.6815 18.5814 19.6834L18.5817 19.6834Z" fill="white"/>
</svg>
