<svg width="38" height="38" viewBox="0 0 38 38" fill="none" xmlns="http://www.w3.org/2000/svg">
<rect width="37.1754" height="37.1754" rx="18.5877" fill="#64A12D"/>
<path d="M18.5817 20.0485C20.6589 20.0485 22.7356 20.4256 24.4535 21.1669V21.1666H24.4541C25.7967 21.7446 26.9145 22.5388 27.6639 23.478C28.4134 24.4172 28.8109 25.4585 28.8109 26.7498V28.8112H8.36438V26.7498C8.36438 25.2698 8.88208 24.1037 9.85049 23.079C10.8189 22.0543 12.2481 21.2403 13.9024 20.7231C15.3498 20.2706 16.9657 20.0467 18.5813 20.0485L18.5817 20.0485Z" fill="white"/>
<path fill-rule="evenodd" clip-rule="evenodd" d="M20.6697 9.4585L18.3452 17.9048C18.262 18.2868 17.9302 18.5415 17.5566 18.5415C17.5152 18.5415 17.4321 18.5415 17.349 18.4991C16.8923 18.3718 16.6432 17.9048 16.7677 17.4381L19.0923 8.9918C19.2168 8.52481 19.6735 8.27014 20.1299 8.39747C20.5452 8.52452 20.7942 8.99152 20.6697 9.4585L20.6697 9.4585ZM15.1074 14.9764C15.4396 15.316 15.4396 15.8254 15.1074 16.1647C14.9415 16.3344 14.7338 16.4194 14.5262 16.4194C14.3185 16.4194 14.1112 16.3344 13.945 16.1647L11.828 14.0001C11.4959 13.6604 11.4959 13.1511 11.828 12.8117L13.945 10.647C14.2771 10.3073 14.7752 10.3073 15.1071 10.647C15.4393 10.9867 15.4393 11.5383 15.1071 11.878L13.5717 13.4484L15.1074 14.9764ZM23.1602 16.2074L25.2771 14.0427C25.6093 13.703 25.6093 13.1937 25.2771 12.854L23.1602 10.647C22.8283 10.3073 22.3302 10.3073 21.998 10.647C21.6659 10.9864 21.6659 11.4957 21.998 11.8354L23.5337 13.4484L21.9977 15.019C21.6656 15.3584 21.6656 15.8677 21.9977 16.2074C22.164 16.3771 22.3713 16.4621 22.579 16.4621C22.7866 16.4621 22.9942 16.3771 23.1602 16.2074Z" fill="white"/>
</svg>
