<svg width="40" height="40" viewBox="0 0 40 40" fill="none" xmlns="http://www.w3.org/2000/svg">
<path d="M5.68708 19.7207C5.68533 19.1974 5.5209 18.6875 5.21683 18.2616C4.91305 17.8356 4.48421 17.5146 3.98979 17.3429C4.38191 14.6538 5.43812 12.1046 7.06288 9.92625C7.69463 10.237 8.42724 10.2685 9.08319 10.0131C9.73886 9.75803 10.2578 9.23941 10.5129 8.58346C10.7682 7.9275 10.7368 7.19491 10.426 6.56314C12.6041 4.93898 15.1526 3.88308 17.8411 3.49095C18.1166 4.26408 18.7519 4.8539 19.5431 5.07198C20.3341 5.28976 21.1819 5.10842 21.8142 4.58541C22.4469 4.06269 22.7844 3.26448 22.7194 2.44643C22.6544 1.62838 22.1944 0.89369 21.4874 0.477388C20.7801 0.0613689 19.9143 0.0161785 19.1677 0.3564C18.421 0.696913 17.8873 1.37999 17.7374 2.18662C14.7742 2.60381 11.9659 3.76765 9.57554 5.56817C8.92221 5.12212 8.09713 5.00784 7.34707 5.25973C6.59694 5.5119 6.00808 6.10084 5.7565 6.8509C5.50461 7.60133 5.61919 8.42603 6.06552 9.07966C4.2653 11.4688 3.10177 14.2763 2.68457 17.2385C2.05282 17.3592 1.49075 17.7161 1.11288 18.2365C0.734759 18.7568 0.569462 19.4017 0.650214 20.0396C0.730967 20.6778 1.05195 21.2611 1.54753 21.6707C2.04313 22.0806 2.67665 22.2861 3.31834 22.2453C3.9603 22.2048 4.56262 21.9211 5.00251 21.452C5.44243 20.9829 5.68733 20.3637 5.68703 19.7206L5.68708 19.7207ZM20.2189 1.43563C20.5433 1.43563 20.8547 1.56449 21.0842 1.79393C21.3136 2.02336 21.4425 2.33443 21.4425 2.65892C21.4425 2.98341 21.3136 3.29476 21.0842 3.52422C20.8547 3.75368 20.5436 3.88281 20.2192 3.88281C19.8947 3.88281 19.5833 3.75395 19.3539 3.52451C19.1244 3.29507 18.9956 2.984 18.9953 2.65951C18.9956 2.33503 19.1247 2.02397 19.3542 1.79452C19.5833 1.56508 19.8944 1.43593 20.2189 1.43564L20.2189 1.43563ZM7.28945 6.79144C7.55825 6.52264 7.93695 6.39408 8.31393 6.44393C8.69089 6.49349 9.02324 6.71564 9.21334 7.04508C9.40342 7.37423 9.42936 7.77333 9.28389 8.12435C9.13841 8.47564 8.83784 8.73949 8.47076 8.83773C8.10343 8.93627 7.7113 8.85843 7.40956 8.62695C7.10782 8.39547 6.93114 8.03689 6.93085 7.65673C6.93027 7.33195 7.05942 7.0206 7.28944 6.79143L7.28945 6.79144ZM1.93364 19.7209C1.93364 19.3964 2.06279 19.0853 2.29223 18.8559C2.52166 18.6264 2.83274 18.4976 3.15752 18.4976C3.482 18.4976 3.79307 18.6267 4.02252 18.8561C4.25195 19.0856 4.38082 19.3967 4.38082 19.7211C4.38082 20.0456 4.25166 20.357 4.02223 20.5864C3.79279 20.8159 3.48172 20.9447 3.15723 20.9447C2.83275 20.9441 2.52169 20.8153 2.29224 20.5859C2.06309 20.3564 1.93394 20.0453 1.93365 19.7209L1.93364 19.7209Z" fill="black"/>
<path d="M30.4943 29.9958C30.1214 30.3646 29.8742 30.8415 29.7876 31.3587C29.7007 31.8759 29.7788 32.4074 30.0112 32.8777C27.8331 34.5021 25.2845 35.5577 22.596 35.9499C22.3678 35.2852 21.8716 34.7464 21.2282 34.4642C20.5848 34.182 19.8524 34.182 19.209 34.4642C18.5653 34.7461 18.0691 35.2849 17.8408 35.9493C15.152 35.5577 12.6034 34.5018 10.4259 32.8771C10.7337 32.2453 10.7632 31.5133 10.5072 30.8588C10.2512 30.2043 9.73289 29.6868 9.07784 29.4314C8.42305 29.1763 7.69131 29.2069 7.05984 29.5157C5.78265 27.8114 4.85264 25.8727 4.3235 23.8098C4.23429 23.4602 3.87833 23.2494 3.52903 23.3389C3.17948 23.4284 2.96899 23.7841 3.0582 24.1336C3.6366 26.389 4.65788 28.507 6.06307 30.3635C5.6176 31.0174 5.5042 31.8421 5.75637 32.5916C6.00884 33.3415 6.59771 33.9298 7.34755 34.1814C8.09768 34.4327 8.92215 34.3184 9.57549 33.8724C11.9652 35.6735 14.7738 36.8373 17.7373 37.2541C17.884 38.0314 18.3863 38.6952 19.0945 39.0473C19.8026 39.3995 20.635 39.3995 21.3434 39.0476C22.0515 38.6954 22.5542 38.0319 22.7008 37.2547C25.664 36.8372 28.4726 35.6737 30.8627 33.8732C31.3944 34.2347 32.044 34.3799 32.6792 34.2793C33.3142 34.1784 33.8871 33.8396 34.2812 33.3315C34.6754 32.8234 34.8608 32.184 34.8002 31.5438C34.7395 30.9039 34.4372 30.3109 33.9547 29.8856C33.4722 29.4605 32.8458 29.2354 32.2032 29.2559C31.5603 29.2763 30.9496 29.541 30.495 29.9961L30.4943 29.9958ZM7.2894 32.6494C7.05997 32.4199 6.93081 32.1089 6.93081 31.7844C6.93081 31.4599 7.05967 31.1485 7.28911 30.9191C7.51884 30.6896 7.82991 30.5608 8.15441 30.5608C8.47889 30.5608 8.79024 30.6896 9.0197 30.9191C9.24914 31.1485 9.378 31.4599 9.378 31.7844C9.378 32.1089 9.24885 32.4199 9.01941 32.6494C8.79114 32.8809 8.47948 33.0109 8.15441 33.0109C7.82935 33.0109 7.5177 32.8809 7.28942 32.6494H7.2894ZM20.2188 38.0052C19.8943 38.0052 19.583 37.8763 19.3535 37.6469C19.1241 37.4175 18.9952 37.1064 18.9952 36.7819C18.9952 36.4574 19.1241 36.1461 19.3535 35.9166C19.583 35.6871 19.894 35.558 20.2185 35.558C20.543 35.558 20.8543 35.6869 21.0838 35.9163C21.3132 36.1457 21.4421 36.4568 21.4424 36.7813C21.4421 37.1058 21.313 37.4168 21.0835 37.6463C20.8544 37.8757 20.5433 38.0049 20.2188 38.0052L20.2188 38.0052ZM33.1482 32.6494C32.8794 32.9182 32.5007 33.0467 32.1237 32.9969C31.7468 32.9473 31.4144 32.7252 31.2243 32.3957C31.0343 32.0666 31.0083 31.6675 31.1538 31.3165C31.2993 30.9652 31.5998 30.7013 31.9669 30.6031C32.3342 30.5045 32.7264 30.5824 33.0281 30.8139C33.3299 31.0453 33.5065 31.4039 33.5068 31.7841C33.5068 32.1086 33.3777 32.4199 33.1482 32.6494L33.1482 32.6494Z" fill="black"/>
<path d="M39.8102 19.7203C39.809 19.132 39.6032 18.5626 39.228 18.1098C38.8528 17.6568 38.3315 17.3487 37.7537 17.2381C37.3365 14.2759 36.1732 11.4678 34.373 9.07852C34.8185 8.42548 34.9325 7.6019 34.6815 6.85236C34.4307 6.10283 33.8433 5.5139 33.0946 5.26089C32.3457 5.00784 31.5215 5.11979 30.8673 5.56351C29.0198 4.04577 26.8484 2.97233 24.5209 2.42571C24.3518 2.38811 24.1745 2.4193 24.0285 2.51259C23.8821 2.60559 23.7789 2.75282 23.7413 2.92191C23.6632 3.27438 23.8853 3.62334 24.2378 3.70145C26.3552 4.2026 28.3309 5.17866 30.0154 6.55616C29.702 7.18762 29.6685 7.92172 29.9227 8.57886C30.1772 9.23627 30.6958 9.75665 31.3524 10.0126C32.0089 10.2689 32.743 10.2374 33.3753 9.92605C35.0003 12.1044 36.0566 14.6536 36.4484 17.3427C35.7831 17.5713 35.244 18.0677 34.9621 18.7121C34.6799 19.3564 34.6808 20.0896 34.9642 20.7333C35.2473 21.377 35.7875 21.8726 36.453 22.0997C36.2148 24.2335 35.4895 26.2838 34.3333 28.0925C34.14 28.3969 34.2301 28.8004 34.5345 28.9936C34.6388 29.0604 34.7601 29.096 34.884 29.0957C35.1076 29.096 35.3161 28.9817 35.4359 28.7928C36.702 26.8016 37.4961 24.5471 37.7573 22.202C38.3343 22.0909 38.8544 21.7825 39.229 21.3297C39.6037 20.877 39.8089 20.3079 39.8101 19.7205L39.8102 19.7203ZM31.4184 8.52086C31.1887 8.29142 31.0598 7.98035 31.0598 7.65586C31.0598 7.33138 31.1887 7.02003 31.4181 6.79057C31.6476 6.56113 31.9589 6.43227 32.2834 6.43227C32.6079 6.43227 32.9193 6.56113 33.1487 6.79057C33.3782 7.02 33.507 7.33137 33.507 7.65586C33.507 7.98034 33.3779 8.29141 33.1484 8.52086C32.9202 8.75234 32.6085 8.88266 32.2834 8.88266C31.9584 8.88266 31.6467 8.75234 31.4185 8.52086H31.4184ZM37.2806 20.9443C36.9561 20.9443 36.6448 20.8154 36.4153 20.586C36.1856 20.3565 36.0567 20.0452 36.0565 19.7207C36.0565 19.3959 36.1853 19.0848 36.415 18.8551C36.6445 18.6256 36.9556 18.4965 37.2803 18.4965C37.6048 18.4965 37.9162 18.6253 38.1456 18.8551C38.3754 19.0845 38.5042 19.3959 38.5042 19.7204C38.5039 20.0448 38.3748 20.3559 38.1456 20.5854C37.9162 20.8148 37.6051 20.9437 37.2806 20.9442L37.2806 20.9443Z" fill="black"/>
<path d="M19.9749 10.2284L11.2481 13.7411C11.0009 13.8408 10.8391 14.0805 10.8391 14.3469V24.9679C10.8391 25.2312 10.9971 25.4688 11.2399 25.5705L19.9369 29.2092C20.0238 29.2424 20.1162 29.2596 20.2092 29.2596C20.2955 29.2596 20.3806 29.2424 20.4602 29.2092L29.1975 25.5705C29.4406 25.4691 29.5995 25.2315 29.5995 24.9679V14.3469C29.5995 14.0805 29.4377 13.8408 29.1905 13.7411L20.4636 10.2284C20.3068 10.166 20.1325 10.166 19.9756 10.2284H19.9749ZM12.1452 14.7884L20.219 11.5383L27.3759 14.419L20.2091 18.0982L14.1676 14.9887C13.8467 14.8237 13.4528 14.9499 13.2878 15.2709C13.1228 15.5916 13.2493 15.9854 13.57 16.1504L19.5558 19.2307V27.6337L12.145 24.5326L12.1452 14.7884ZM20.8623 27.6267L20.8626 19.2305L28.2938 15.4158V24.5322L20.8623 27.6267Z" fill="black"/>
</svg>
