<svg width="39" height="39" viewBox="0 0 39 39" fill="none" xmlns="http://www.w3.org/2000/svg">
<path d="M19.8299 20.7617C17.9421 20.7617 16.1317 21.5116 14.7971 22.8464C13.4622 24.181 12.7124 25.9914 12.7124 27.8792C12.7124 29.767 13.4623 31.5774 14.7971 32.912C16.1317 34.2469 17.9421 34.9967 19.8299 34.9967C21.7177 34.9967 23.5281 34.2468 24.8627 32.912C26.1976 31.5774 26.9474 29.767 26.9474 27.8792C26.9474 25.9914 26.1975 24.181 24.8627 22.8464C23.5281 21.5115 21.7177 20.7617 19.8299 20.7617V20.7617ZM19.8299 33.4151C18.3616 33.4151 16.9536 32.8318 15.9156 31.7935C14.8773 30.7556 14.2941 29.3476 14.2941 27.8792C14.2941 26.4108 14.8773 25.0029 15.9156 23.9649C16.9535 22.9266 18.3615 22.3434 19.8299 22.3434C21.2983 22.3434 22.7062 22.9266 23.7442 23.9649C24.7825 25.0028 25.3657 26.4108 25.3657 27.8792C25.3657 29.3476 24.7825 30.7555 23.7442 31.7935C22.7063 32.8318 21.2983 33.4151 19.8299 33.4151V33.4151Z" fill="black"/>
<path d="M33.8282 22.4188C33.2754 21.0009 32.5099 19.6755 31.5585 18.4883C31.3696 18.2524 31.0625 18.1451 30.7677 18.2115L27.6043 18.9155C26.4664 17.9301 25.1513 17.1707 23.7292 16.6771L22.7484 13.5692H22.7488C22.6584 13.2807 22.4113 13.0689 22.1119 13.0237C20.61 12.7981 19.0827 12.7981 17.5804 13.0237C17.2814 13.0689 17.0343 13.2807 16.9439 13.5692L15.9631 16.6771C14.5414 17.1707 13.2263 17.93 12.088 18.9155L8.92466 18.2115C8.62987 18.1451 8.32307 18.2524 8.13383 18.4883C7.18239 19.6756 6.41695 21.0009 5.86445 22.4188C5.74866 22.6934 5.79773 23.0101 5.99084 23.2371L8.19315 25.6453C7.9033 27.1207 7.9033 28.6381 8.19315 30.1136L5.99084 32.5218C5.78819 32.7431 5.72853 33.0602 5.83656 33.3402C6.03321 33.7737 6.25387 34.1963 6.49712 34.6055C6.63834 34.8473 6.89713 34.9963 7.17709 34.997C7.31585 34.9956 7.45177 34.9589 7.57251 34.8904C7.75433 34.7845 7.88638 34.6108 7.93968 34.4078C7.99335 34.2044 7.96334 33.988 7.85707 33.8069C7.75433 33.6367 7.6237 33.4115 7.5132 33.1901L9.62865 30.8847C9.80377 30.6923 9.87331 30.4264 9.81436 30.1729C9.4666 28.6637 9.4666 27.0954 9.81436 25.5861C9.87332 25.3326 9.80377 25.0668 9.62865 24.8743L7.4934 22.5414C7.904 21.5928 8.42297 20.6942 9.03937 19.8646L12.1275 20.5488V20.5485C12.3824 20.6053 12.6486 20.5329 12.8393 20.3547C13.9683 19.3019 15.3198 18.5167 16.7934 18.0573C17.042 17.9811 17.2372 17.7873 17.3156 17.5394L18.2685 14.5222C19.2958 14.4078 20.3331 14.4078 21.3605 14.5222L22.3134 17.5394H22.3137C22.3918 17.7873 22.587 17.9811 22.8355 18.0573C24.3096 18.5167 25.661 19.3019 26.7897 20.3547C26.9804 20.5329 27.2469 20.6053 27.5015 20.5485L30.5896 19.8643V19.8646C31.2173 20.6929 31.7466 21.5911 32.1674 22.5414L30.0321 24.8743C29.857 25.0668 29.7875 25.3326 29.8464 25.5861C30.1942 27.0954 30.1942 28.6637 29.8464 30.1729C29.7875 30.4264 29.857 30.6923 30.0321 30.8847L32.1437 33.194C32.0328 33.4037 31.9026 33.6367 31.8037 33.8069C31.6367 34.1765 31.7762 34.6122 32.1267 34.8163C32.4773 35.02 32.9253 34.9257 33.1637 34.5977C33.4115 34.1914 33.6332 33.7702 33.8281 33.3363C33.9337 33.0567 33.8723 32.7414 33.67 32.5218L31.4676 30.1136C31.7575 28.6382 31.7575 27.1208 31.4676 25.6453L33.67 23.2371C33.874 23.0165 33.9351 22.6994 33.8281 22.4188L33.8282 22.4188Z" fill="black"/>
<path d="M34.065 0.200195H5.59498C4.33633 0.200195 3.12965 0.70011 2.23958 1.5898C1.34989 2.47985 0.849976 3.68655 0.849976 4.9452V33.4152C0.849976 34.6738 1.34989 35.8805 2.23958 36.7706C3.12963 37.6603 4.33633 38.1602 5.59498 38.1602H34.065C35.3236 38.1602 36.5303 37.6603 37.4204 36.7706C38.3101 35.8805 38.81 34.6738 38.81 33.4152V4.9452C38.81 3.68655 38.3101 2.47987 37.4204 1.5898C36.5303 0.70011 35.3236 0.200195 34.065 0.200195ZM5.59498 1.78186H34.065C34.9038 1.78186 35.7085 2.11514 36.3019 2.70827C36.895 3.30174 37.2283 4.10637 37.2283 4.9452V8.10853H2.43164V4.9452C2.43164 4.10635 2.76492 3.30171 3.35805 2.70827C3.95152 2.11514 4.75615 1.78186 5.59498 1.78186ZM34.065 36.5785H5.59498C4.75613 36.5785 3.95149 36.2452 3.35805 35.6521C2.76492 35.0586 2.43164 34.254 2.43164 33.4152V9.6902H37.2283V33.4152C37.2283 34.254 36.895 35.0587 36.3019 35.6521C35.7084 36.2452 34.9038 36.5785 34.065 36.5785Z" fill="black"/>
</svg>
