<svg width="38" height="38" viewBox="0 0 38 38" fill="none" xmlns="http://www.w3.org/2000/svg">
<rect width="37.1754" height="37.1754" rx="18.5877" fill="#64A12D"/>
<path fill-rule="evenodd" clip-rule="evenodd" d="M23.3207 8.48786L23.3311 8.49829L23.3312 8.49826C27.224 10.3313 29.7403 14.2869 29.7403 18.5879C29.7403 24.7358 24.7356 29.7406 18.5878 29.7406C17.5074 29.7406 16.4374 29.5837 15.4094 29.2805L15.378 29.2701C15.3431 29.2631 15.3083 29.2492 15.2769 29.2352C11.579 28.0853 8.70716 25.0427 7.77317 21.2961C7.75932 21.2576 7.74874 21.2194 7.74532 21.1845C7.53963 20.3446 7.43507 19.4697 7.43507 18.588C7.43507 16.0611 8.30637 13.5901 9.88872 11.6176V11.4503L10.0281 11.4469C11.2411 9.99369 12.8094 8.8644 14.566 8.1848C14.6149 8.16037 14.6566 8.14995 14.688 8.14294C15.5453 7.81525 16.4619 7.59914 17.3924 7.50158C17.4168 7.49801 17.4551 7.49458 17.49 7.49458C17.8036 7.45615 18.173 7.4353 18.5878 7.4353C20.1702 7.4353 21.7001 7.76295 23.136 8.40415H23.1395L23.3207 8.48786ZM15.9668 28.2035C16.8173 28.4335 17.699 28.552 18.5877 28.552L18.5879 28.5522C23.5333 28.5522 27.7189 24.9168 28.4368 20.0654L28.0534 20.3651C27.9523 20.4452 27.8059 20.4592 27.6909 20.3929C27.5759 20.3302 27.5097 20.2012 27.5237 20.0688C27.6108 19.2568 27.1367 18.7026 26.7255 18.3785C26.6419 18.3158 26.5548 18.3228 26.513 18.3332C26.4294 18.3542 26.3631 18.4099 26.3283 18.4866C25.9379 19.3545 25.8334 21.0064 25.8089 21.4909C25.7985 21.7036 25.7532 21.9091 25.6765 22.1078L25.0875 23.6343C25.0003 24.1641 24.5472 24.8437 23.7457 25.6557C23.5401 25.8613 23.2682 25.9728 22.9859 25.9728C22.9459 25.9728 22.9058 25.9695 22.8657 25.9662L22.8605 25.9658C22.5398 25.9274 22.254 25.7497 22.0868 25.4709C21.4951 24.5188 21.1058 23.0193 21.071 22.8853C21.0701 22.8819 21.0695 22.8794 21.0691 22.8778C20.9645 22.3656 20.6997 22.0868 20.257 22.0031C19.8178 21.9229 19.4693 21.6928 19.2742 21.3583C18.999 20.8842 18.5144 20.588 18.1555 20.4207C17.6711 20.1908 17.3575 19.7096 17.3435 19.166L17.3295 18.7164L16.7789 18.2599C16.7162 18.211 16.6779 18.1379 16.6639 18.0612L16.5245 17.2422C16.4478 16.7995 16.5557 16.3394 16.8241 15.9805L17.7721 14.705C17.8523 14.5968 17.908 14.4644 17.9324 14.332L18.2008 12.8752C18.2182 12.7881 18.2705 12.708 18.3472 12.6591C18.4239 12.6103 18.518 12.5928 18.6086 12.6173C19.4764 12.8334 20.0235 13.6943 20.3163 14.3216C20.7321 13.3213 20.5885 12.1994 20.5721 12.0715C20.5712 12.0644 20.5707 12.0604 20.5707 12.0596C20.5464 11.9064 20.63 11.7564 20.7764 11.7007C21.0308 11.5997 21.3725 11.6414 21.7941 11.8122C21.9127 11.8609 22.0416 11.8645 22.1566 11.8227L23.1778 11.4289C22.8326 10.6585 22.7141 9.95448 22.6758 9.49798C22.6549 9.48926 22.6348 9.47969 22.6148 9.47012C22.5948 9.46056 22.5748 9.45099 22.5538 9.44228C21.3026 8.89524 19.9712 8.61984 18.5912 8.61984C18.2705 8.61984 17.9743 8.63385 17.685 8.6617C17.625 8.66634 17.565 8.67405 17.505 8.68175C17.4744 8.68568 17.4438 8.68961 17.4132 8.69313L17.0961 9.07308L17.7269 10.2719C17.7757 10.3696 17.7757 10.488 17.7235 10.5822C17.6712 10.6763 17.57 10.739 17.4621 10.753C17.4378 10.753 14.7437 11.0144 13.4507 11.9588C13.3916 12.0007 13.3253 12.0215 13.2556 12.0215C13.1719 12.0215 13.0848 11.9902 13.0221 11.924C12.9035 11.809 12.8931 11.6243 12.9907 11.4953C13.3496 11.0212 13.8375 10.2929 14.1582 9.66896C12.9522 10.2718 11.858 11.1257 10.9797 12.1609C10.9307 12.2175 10.8856 12.276 10.8401 12.3349C10.824 12.3559 10.8078 12.3768 10.7914 12.3978L10.8507 14.2869C10.8507 14.3101 10.8474 14.3335 10.8441 14.3569L10.8437 14.36L10.5021 16.1898C10.429 16.5627 10.2267 16.8938 9.92708 17.1273C9.55754 17.4096 9.44957 17.6327 9.46699 17.7372C9.47757 17.7859 9.47397 17.8348 9.46357 17.8801C9.45317 17.9253 9.22662 18.7584 8.64115 19.18C8.64298 19.2032 8.64387 19.2246 8.64477 19.246C8.64562 19.2665 8.64648 19.2869 8.64815 19.309C8.67258 19.682 8.72486 20.0618 8.79798 20.4417C9.04194 20.3546 9.32418 20.3127 9.603 20.4139C10.0561 20.5813 10.3417 21.0726 10.4429 21.8742L10.4569 22.1182C10.4847 22.5923 10.8122 23.0035 11.2793 23.1429C11.8335 23.3068 12.6351 23.6972 13.2903 24.6208C13.3878 24.7566 13.4958 24.8543 13.6143 24.91C14.2208 25.2097 16.0506 26.2727 15.9216 28.1895C15.9282 28.1912 15.9356 28.1937 15.9431 28.1962C15.9513 28.199 15.9595 28.2017 15.9668 28.2035Z" fill="white"/>
</svg>
