<svg width="38" height="43" viewBox="0 0 38 43" fill="none" xmlns="http://www.w3.org/2000/svg">
<mask id="path-1-outside-1_119_12116" maskUnits="userSpaceOnUse" x="-0.0600586" y="-0.349609" width="38" height="43" fill="black">
<rect fill="white" x="-0.0600586" y="-0.349609" width="38" height="43"/>
<path fill-rule="evenodd" clip-rule="evenodd" d="M34.7424 42.2604H3.52329C2.83772 42.2586 2.18062 41.9846 1.69643 41.4989C1.21218 41.0132 0.939941 40.3555 0.939941 39.6699V3.23378C0.942079 2.54927 1.21467 1.8933 1.69892 1.40901C2.18281 0.925118 2.8388 0.652169 3.52332 0.650391H26.4305C26.6099 0.651059 26.7825 0.718174 26.9155 0.837626C26.9244 0.845484 26.9331 0.853584 26.9416 0.861922L37.1144 11.0129C37.2734 11.1708 37.3483 11.3896 37.326 11.6054V39.6698C37.326 40.3554 37.0537 41.0132 36.5695 41.4989C36.0852 41.9846 35.4279 42.2586 34.7424 42.2604ZM3.52329 2.10983H25.7008V9.91092C25.7008 10.5366 25.9503 11.1366 26.3943 11.5778C26.8382 12.0189 27.4393 12.2648 28.0654 12.2609H35.8663V39.6697C35.8681 39.9691 35.7505 40.2566 35.5395 40.469C35.3286 40.6814 35.0417 40.8007 34.7424 40.8007H3.52332C3.224 40.8007 2.93716 40.6814 2.72621 40.469C2.51526 40.2566 2.39768 39.9691 2.39946 39.6697V3.23366C2.39946 2.61296 2.90257 2.10983 3.52329 2.10983ZM27.1605 3.13886V9.91085C27.1605 10.3997 27.5546 10.797 28.0435 10.8013H34.8155L27.1605 3.13886ZM5.26708 6.94096H18.9136C19.3166 6.94096 19.6433 6.61421 19.6433 6.21121C19.6433 5.8082 19.3166 5.48145 18.9136 5.48145H5.26708C4.86407 5.48145 4.53732 5.8082 4.53732 6.21121C4.53732 6.61421 4.86407 6.94096 5.26708 6.94096Z"/>
</mask>
<path fill-rule="evenodd" clip-rule="evenodd" d="M34.7424 42.2604H3.52329C2.83772 42.2586 2.18062 41.9846 1.69643 41.4989C1.21218 41.0132 0.939941 40.3555 0.939941 39.6699V3.23378C0.942079 2.54927 1.21467 1.8933 1.69892 1.40901C2.18281 0.925118 2.8388 0.652169 3.52332 0.650391H26.4305C26.6099 0.651059 26.7825 0.718174 26.9155 0.837626C26.9244 0.845484 26.9331 0.853584 26.9416 0.861922L37.1144 11.0129C37.2734 11.1708 37.3483 11.3896 37.326 11.6054V39.6698C37.326 40.3554 37.0537 41.0132 36.5695 41.4989C36.0852 41.9846 35.4279 42.2586 34.7424 42.2604ZM3.52329 2.10983H25.7008V9.91092C25.7008 10.5366 25.9503 11.1366 26.3943 11.5778C26.8382 12.0189 27.4393 12.2648 28.0654 12.2609H35.8663V39.6697C35.8681 39.9691 35.7505 40.2566 35.5395 40.469C35.3286 40.6814 35.0417 40.8007 34.7424 40.8007H3.52332C3.224 40.8007 2.93716 40.6814 2.72621 40.469C2.51526 40.2566 2.39768 39.9691 2.39946 39.6697V3.23366C2.39946 2.61296 2.90257 2.10983 3.52329 2.10983ZM27.1605 3.13886V9.91085C27.1605 10.3997 27.5546 10.797 28.0435 10.8013H34.8155L27.1605 3.13886ZM5.26708 6.94096H18.9136C19.3166 6.94096 19.6433 6.61421 19.6433 6.21121C19.6433 5.8082 19.3166 5.48145 18.9136 5.48145H5.26708C4.86407 5.48145 4.53732 5.8082 4.53732 6.21121C4.53732 6.61421 4.86407 6.94096 5.26708 6.94096Z" fill="white"/>
<path d="M3.52329 42.2604L3.52251 42.5604H3.52329V42.2604ZM34.7424 42.2604L34.7424 42.5604L34.7432 42.5604L34.7424 42.2604ZM1.69643 41.4989L1.90889 41.2871L1.90887 41.2871L1.69643 41.4989ZM0.939941 3.23378L0.639941 3.23284V3.23378H0.939941ZM1.69892 1.40901L1.48679 1.19688L1.48678 1.19689L1.69892 1.40901ZM3.52332 0.650391L3.52332 0.35039L3.52254 0.350392L3.52332 0.650391ZM26.4305 0.650391L26.4316 0.350391H26.4305V0.650391ZM26.9155 0.837626L26.7151 1.06086L26.7163 1.06187L26.9155 0.837626ZM26.9416 0.861922L27.1535 0.649553L27.1515 0.647616L26.9416 0.861922ZM37.1144 11.0129L36.9025 11.2252L36.903 11.2257L37.1144 11.0129ZM37.326 11.6054L37.0275 11.5745L37.026 11.5899V11.6054H37.326ZM36.5695 41.4989L36.357 41.2871L36.357 41.2871L36.5695 41.4989ZM25.7008 2.10983H26.0008V1.80983H25.7008V2.10983ZM26.3943 11.5778L26.6057 11.365L26.6057 11.365L26.3943 11.5778ZM28.0654 12.2609V11.9609L28.0635 11.9609L28.0654 12.2609ZM35.8663 12.2609H36.1663V11.9609H35.8663V12.2609ZM35.8663 39.6697L35.5663 39.6697L35.5663 39.6715L35.8663 39.6697ZM35.5395 40.469L35.3267 40.2576L35.3267 40.2576L35.5395 40.469ZM2.72621 40.469L2.51337 40.6804L2.51337 40.6804L2.72621 40.469ZM2.39946 39.6697L2.69946 39.6715V39.6697H2.39946ZM27.1605 3.13886L27.3727 2.92684L26.8605 2.4141V3.13886H27.1605ZM28.0435 10.8013L28.0409 11.1013H28.0435V10.8013ZM34.8155 10.8013V11.1013H35.5392L35.0277 10.5893L34.8155 10.8013ZM3.52329 42.5604H34.7424V41.9604H3.52329V42.5604ZM1.48397 41.7107C2.0242 42.2526 2.7574 42.5584 3.52251 42.5604L3.52407 41.9604C2.91804 41.9588 2.33705 41.7166 1.90889 41.2871L1.48397 41.7107ZM0.639941 39.6699C0.639941 40.435 0.943747 41.1689 1.48399 41.7107L1.90887 41.2871C1.48061 40.8576 1.23994 40.2759 1.23994 39.6699H0.639941ZM0.639941 3.23378V39.6699H1.23994V3.23378H0.639941ZM1.48678 1.19689C0.946452 1.73726 0.642328 2.46917 0.639943 3.23284L1.23994 3.23471C1.24183 2.62937 1.48288 2.04934 1.91106 1.62114L1.48678 1.19689ZM3.52254 0.350392C2.75867 0.352377 2.02671 0.656956 1.48679 1.19688L1.91105 1.62114C2.33892 1.19328 2.91893 0.951962 3.5241 0.95039L3.52254 0.350392ZM26.4305 0.350391H3.52332V0.950391H26.4305V0.350391ZM27.116 0.614399C26.9286 0.446167 26.6852 0.351337 26.4316 0.350393L26.4294 0.950389C26.5346 0.950781 26.6364 0.990182 26.7151 1.06085L27.116 0.614399ZM27.1515 0.647616C27.1395 0.635888 27.1273 0.624474 27.1148 0.61338L26.7163 1.06187C26.7215 1.06649 26.7266 1.07128 26.7316 1.07623L27.1515 0.647616ZM37.3263 10.8005L27.1535 0.649562L26.7297 1.07428L36.9025 11.2252L37.3263 10.8005ZM37.6244 11.6362C37.6558 11.3318 37.5503 11.0229 37.3258 10.8L36.903 11.2257C36.9965 11.3186 37.0407 11.4474 37.0275 11.5745L37.6244 11.6362ZM37.626 39.6698V11.6054H37.026V39.6698H37.626ZM36.7819 41.7107C37.3222 41.1689 37.626 40.4349 37.626 39.6698H37.026C37.026 40.2759 36.7853 40.8576 36.357 41.2871L36.7819 41.7107ZM34.7432 42.5604C35.5082 42.5584 36.2416 42.2526 36.7819 41.7107L36.357 41.2871C35.9288 41.7165 35.3476 41.9588 34.7416 41.9604L34.7432 42.5604ZM25.7008 1.80983H3.52329V2.40983H25.7008V1.80983ZM26.0008 9.91092V2.10983H25.4008V9.91092H26.0008ZM26.6057 11.365C26.2184 10.9802 26.0008 10.4568 26.0008 9.91092H25.4008C25.4008 10.6164 25.6821 11.2931 26.1828 11.7906L26.6057 11.365ZM28.0635 11.9609C27.5174 11.9643 26.993 11.7498 26.6057 11.365L26.1828 11.7906C26.6834 12.288 27.3613 12.5653 28.0673 12.5609L28.0635 11.9609ZM35.8663 11.9609H28.0654V12.5609H35.8663V11.9609ZM36.1663 39.6697V12.2609H35.5663V39.6697H36.1663ZM35.7524 40.6804C36.0196 40.4114 36.1686 40.0471 36.1663 39.668L35.5663 39.6715C35.5676 39.891 35.4814 40.1018 35.3267 40.2576L35.7524 40.6804ZM34.7424 41.1007C35.1217 41.1007 35.4851 40.9495 35.7524 40.6804L35.3267 40.2576C35.1721 40.4132 34.9618 40.5007 34.7424 40.5007V41.1007ZM3.52332 41.1007H34.7424V40.5007H3.52332V41.1007ZM2.51337 40.6804C2.78063 40.9495 3.14409 41.1007 3.52332 41.1007V40.5007C3.30391 40.5007 3.09368 40.4132 2.93905 40.2576L2.51337 40.6804ZM2.09947 39.668C2.09721 40.0471 2.24618 40.4114 2.51337 40.6804L2.93906 40.2576C2.78435 40.1018 2.69815 39.891 2.69946 39.6715L2.09947 39.668ZM2.09946 3.23366V39.6697H2.69946V3.23366H2.09946ZM3.52329 1.80983C2.73688 1.80983 2.09946 2.44728 2.09946 3.23366H2.69946C2.69946 2.77864 3.06826 2.40983 3.52329 2.40983V1.80983ZM27.4605 9.91085V3.13886H26.8605V9.91085H27.4605ZM28.0461 10.5013C27.7218 10.4985 27.4605 10.235 27.4605 9.91085H26.8605C26.8605 10.5645 27.3874 11.0956 28.0409 11.1013L28.0461 10.5013ZM34.8155 10.5013H28.0435V11.1013H34.8155V10.5013ZM26.9483 3.35089L34.6032 11.0133L35.0277 10.5893L27.3727 2.92684L26.9483 3.35089ZM18.9136 6.64096H5.26708V7.24096H18.9136V6.64096ZM19.3433 6.21121C19.3433 6.44853 19.1509 6.64096 18.9136 6.64096V7.24096C19.4823 7.24096 19.9433 6.7799 19.9433 6.21121H19.3433ZM18.9136 5.78145C19.1509 5.78145 19.3433 5.97388 19.3433 6.21121H19.9433C19.9433 5.64251 19.4823 5.18145 18.9136 5.18145V5.78145ZM5.26708 5.78145H18.9136V5.18145H5.26708V5.78145ZM4.83732 6.21121C4.83732 5.97388 5.02976 5.78145 5.26708 5.78145V5.18145C4.69839 5.18145 4.23732 5.64251 4.23732 6.21121H4.83732ZM5.26708 6.64096C5.02976 6.64096 4.83732 6.44853 4.83732 6.21121H4.23732C4.23732 6.7799 4.69839 7.24096 5.26708 7.24096V6.64096Z" fill="white" mask="url(#path-1-outside-1_119_12116)"/>
<path d="M12.5691 36.2914C12.569 36.7065 12.4043 37.1048 12.1107 37.3984L12.1107 37.3984C11.8171 37.6921 11.4186 37.8567 11.0033 37.8567H10.8533V37.8566H6.84389H6.84353V37.7815L6.84317 37.8566C6.42898 37.8546 6.03294 37.6887 5.74094 37.3956L5.74079 37.3954C5.44925 37.1019 5.2853 36.7051 5.2853 36.2909V32.1315C5.2853 32.1314 5.2853 32.1312 5.2853 32.1311C5.2854 31.7175 5.4493 31.3204 5.74086 31.0273L12.5691 36.2914ZM12.5691 36.2914C12.5691 36.2912 12.5691 36.2911 12.5691 36.291V32.1316C12.5691 31.7162 12.4044 31.3178 12.1107 31.0242L12.1107 31.0242C11.8171 30.7306 11.4188 30.5659 11.0037 30.5658C11.0036 30.5658 11.0035 30.5658 11.0033 30.5658L6.84389 30.5658L6.84317 30.5658C6.42896 30.5678 6.03287 30.7337 5.74087 31.0273L12.5691 36.2914ZM10.8513 36.0987L7.04262 36.1393L6.9954 32.3249L10.8107 32.3249L10.8513 36.0987Z" fill="white" stroke="white" stroke-width="0.3"/>
<path d="M15.9459 37.3984L15.9459 37.3984C16.2396 37.692 16.6376 37.8567 17.0529 37.8567H21.2127C21.6281 37.8567 22.0261 37.692 22.3198 37.3984L22.3198 37.3984C22.6133 37.1049 22.7784 36.7066 22.7785 36.2914C22.7785 36.2912 22.7785 36.2911 22.7785 36.291V32.1316C22.7785 31.7162 22.6134 31.3178 22.3198 31.0242L22.3198 31.0242C22.0261 30.7305 21.6281 30.5658 21.2127 30.5658H17.0529C16.6376 30.5658 16.2395 30.7305 15.9459 31.0242L15.9459 31.0242C15.6524 31.3177 15.4873 31.716 15.4872 32.1312C15.4872 32.1313 15.4872 32.1314 15.4872 32.1316V36.291C15.4872 36.7064 15.6523 37.1048 15.9459 37.3984ZM21.0611 36.0988L17.2452 36.1394L17.2045 32.3251L21.0205 32.325L21.0611 36.0988Z" fill="white" stroke="white" stroke-width="0.3"/>
<path d="M31.4221 37.8567H31.5721V37.8488C31.9313 37.8127 32.2684 37.6533 32.5251 37.3956L32.5252 37.3954C32.8167 37.102 32.9806 36.7053 32.9807 36.2913C32.9807 36.2912 32.9807 36.2911 32.9807 36.2909V32.1315C32.9807 31.7177 32.8168 31.3205 32.5251 31.0273L32.5251 31.0273C32.2331 30.7337 31.837 30.5678 31.4228 30.5658L31.4225 30.641V30.5658H31.4221H27.2627C26.8474 30.5658 26.4489 30.7305 26.1553 31.0242L26.1553 31.0242C25.8617 31.3178 25.697 31.7161 25.6969 32.1312C25.6969 32.1313 25.6969 32.1314 25.6969 32.1316V36.291C25.6969 36.7063 25.8616 37.1047 26.1553 37.3984L26.1553 37.3984C26.4489 37.692 26.8472 37.8567 27.2623 37.8567C27.2624 37.8567 27.2625 37.8567 27.2627 37.8567H31.4221ZM31.2702 36.0988L27.4545 36.1394L27.4139 32.3251L31.223 32.325L31.2702 36.0988Z" fill="white" stroke="white" stroke-width="0.3"/>
<rect x="14.0801" y="10.8701" width="10.22" height="8.03" fill="#95CC64"/>
<path d="M23.6283 20.2555L23.6292 20.2555C24.043 20.2531 24.439 20.087 24.7309 19.7939L24.731 19.7939C25.023 19.5003 25.1865 19.1034 25.1865 18.6897V11.6764C25.1865 11.2627 25.023 10.8658 24.731 10.5722L24.7309 10.5721C24.4389 10.279 24.0429 10.1131 23.6292 10.1107H23.6283H14.645C14.2296 10.1107 13.8312 10.2759 13.5376 10.5694L13.5376 10.5694C13.244 10.8631 13.0792 11.2615 13.0792 11.6765V18.6897C13.0792 19.1047 13.244 19.5031 13.5376 19.7968L13.5376 19.7968C13.8312 20.0903 14.2296 20.2555 14.645 20.2555L23.6283 20.2555ZM23.4772 18.4966L14.8388 18.539V11.8696L23.4285 11.8276L23.4772 18.4966Z" fill="white" stroke="white" stroke-width="0.3"/>
<path d="M9.79604 31.4308V26.3556H28.4698V31.4454C28.4698 31.8801 28.7852 32.2412 29.1996 32.3124V32.3251H29.3496C29.5859 32.3251 29.8126 32.2298 29.978 32.061C30.143 31.8926 30.2336 31.6651 30.2293 31.4294V25.4759C30.2293 25.2425 30.1365 25.0188 29.9716 24.8538C29.8066 24.6889 29.5829 24.5961 29.3496 24.5961H8.91628C8.43043 24.5961 8.03652 24.99 8.03652 25.4759V31.4308C8.03652 31.9166 8.43043 32.3105 8.91628 32.3105C9.40214 32.3105 9.79604 31.9166 9.79604 31.4308Z" fill="white" stroke="white" stroke-width="0.3"/>
<path d="M18.2531 31.4455C18.2531 31.9313 18.647 32.3253 19.1328 32.3253C19.3661 32.3253 19.5899 32.2324 19.7549 32.0675C19.9198 31.9026 20.0126 31.6788 20.0126 31.4455V19.3753C20.0126 18.8894 19.6187 18.4955 19.1328 18.4955C18.647 18.4955 18.2531 18.8894 18.2531 19.3753V31.4455Z" fill="white" stroke="white" stroke-width="0.3"/>
</svg>
