<svg width="37" height="37" viewBox="0 0 37 37" fill="none" xmlns="http://www.w3.org/2000/svg">
<path d="M5.94408 0.130859C3.01266 0.130859 0.630432 2.5132 0.630432 5.44451V31.3126C0.630432 34.244 3.01277 36.6309 5.94408 36.6309H31.6511C34.5825 36.6309 36.9647 34.2439 36.9647 31.3126V29.4526C36.9664 29.4429 36.9681 29.4329 36.9694 29.4232V5.44511C36.9694 3.79614 36.2138 2.32114 35.0313 1.34582H35.03C34.9646 1.29171 34.897 1.23801 34.8291 1.18725C34.7611 1.13649 34.6915 1.08699 34.621 1.03917C34.5505 0.991767 34.4776 0.944784 34.405 0.900733C34.186 0.767752 33.9557 0.6503 33.7179 0.549622C33.2413 0.347847 32.7283 0.213191 32.1935 0.158658C32.1041 0.149429 32.0148 0.143137 31.9246 0.138522C31.834 0.133908 31.7425 0.131391 31.6511 0.131391L5.94408 0.130859ZM5.94408 1.63099H31.6511C33.7758 1.63099 35.4651 3.32023 35.4651 5.44505V28.6723H2.13453V5.44505C2.13453 5.37877 2.13579 5.31207 2.13915 5.24662C2.16851 4.65724 2.32834 4.10518 2.5901 3.61859C2.61905 3.56448 2.65009 3.5112 2.68155 3.45877C3.34519 2.35845 4.54917 1.63099 5.94352 1.63099H5.94408ZM8.6546 32.1109C8.24097 32.1121 7.9058 32.4477 7.90538 32.8613C7.90664 33.275 8.24139 33.6097 8.6546 33.611H29.1296C29.5428 33.6097 29.8775 33.275 29.8788 32.8613C29.8784 32.4477 29.5432 32.1121 29.1296 32.1109H8.6546ZM2.13486 30.1732H35.4655V31.3126C35.4655 33.4373 33.7762 35.1267 31.6514 35.1267L5.94441 35.1263C3.8197 35.1263 2.1354 33.437 2.1354 31.3122L2.13486 30.1732ZM18.4034 5.03308C17.5853 5.03308 16.9032 5.71601 16.9032 6.53407V7.60755C16.6733 7.68976 16.4489 7.78456 16.2278 7.88819L15.4648 7.12849C14.8871 6.55085 13.9248 6.55085 13.3472 7.12849L11.7581 8.71292C11.1805 9.29098 11.1805 10.2575 11.7581 10.8356L12.5216 11.5944C12.418 11.8151 12.3244 12.0404 12.2422 12.2698H11.1641C10.3461 12.2698 9.66313 12.9519 9.66313 13.77V16.0122C9.66313 16.8302 10.3461 17.5131 11.1641 17.5131H12.2422C12.3244 17.743 12.418 17.9662 12.5216 18.1873L11.7581 18.9507C11.1796 19.5292 11.1796 20.4945 11.7581 21.0734L13.3472 22.6578C13.9248 23.2355 14.8871 23.2355 15.4648 22.6578L16.2283 21.8944C16.4493 21.998 16.6738 22.0915 16.9036 22.1737V23.2518C16.9036 24.0698 17.587 24.7528 18.4038 24.7528H20.646C21.4627 24.7528 22.1461 24.0699 22.1461 23.2518V22.1737C22.3756 22.0915 22.6008 21.9976 22.8215 21.8944L23.5803 22.6578C24.1588 23.2363 25.1241 23.2363 25.703 22.6578L27.2921 21.0734C27.8705 20.4949 27.8705 19.5297 27.2921 18.9507L26.5286 18.1873C26.6322 17.9662 26.7257 17.743 26.808 17.5131H27.8861C28.7041 17.5131 29.3824 16.8302 29.3824 16.0122V13.77C29.3824 12.952 28.7041 12.2698 27.8861 12.2698H26.808C26.7253 12.0404 26.6322 11.8151 26.5282 11.5944L27.2916 10.8356C27.8693 10.2575 27.8693 9.291 27.2916 8.71292L25.7026 7.12849C25.1241 6.55001 24.1589 6.55001 23.5799 7.12849L22.8211 7.88861C22.6008 7.78457 22.3751 7.6906 22.1461 7.60797V6.53448C22.1461 5.71647 21.464 5.03349 20.646 5.03349L18.4034 5.03308ZM18.4034 6.53901H20.6409V8.10582H20.6413C20.6418 8.44309 20.867 8.73925 21.1921 8.82945C21.6939 8.96746 22.1775 9.16672 22.6298 9.42387V9.42346C22.9243 9.58958 23.2934 9.53881 23.5321 9.29929L24.6421 8.1893L26.2219 9.77503L25.1165 10.885C24.8774 11.1233 24.8267 11.4916 24.9919 11.7857C25.2487 12.2379 25.4496 12.7182 25.5876 13.2198C25.6761 13.5466 25.9727 13.7736 26.3108 13.7744H27.8823V16.012H26.3058H26.3062C25.9689 16.0124 25.6728 16.2377 25.5826 16.5628C25.4454 17.0637 25.2474 17.5482 24.9919 18.0004C24.8254 18.2936 24.8745 18.662 25.1119 18.9015L26.2265 20.0081L26.2219 20.0115L24.6408 21.5926L23.5321 20.4826V20.4822C23.2934 20.2427 22.9242 20.1919 22.6298 20.358C22.1776 20.6139 21.6976 20.8161 21.1968 20.9537V20.9533C20.87 21.0418 20.6422 21.338 20.6413 21.6769V23.2483H18.4038V21.6769C18.4033 21.3396 18.1789 21.0439 17.8538 20.9533C17.3529 20.8161 16.8672 20.6135 16.415 20.3576V20.358C16.1209 20.1923 15.7526 20.2435 15.5144 20.4822L14.4044 21.5922L12.8233 20.0077L13.9333 18.9024C14.1728 18.6641 14.224 18.295 14.0578 18.0005C13.802 17.5483 13.6044 17.0637 13.4668 16.5628C13.3766 16.2365 13.0788 16.0108 12.7398 16.0121H11.1684V13.7745H12.7398C13.0796 13.7749 13.3779 13.548 13.4668 13.2199C13.604 12.719 13.802 12.2379 14.0574 11.7857H14.0578C14.2231 11.4916 14.1724 11.1233 13.9333 10.8851L12.8279 9.77508L14.4044 8.19398L15.5144 9.30396C15.7539 9.54139 16.1222 9.59048 16.415 9.42352C16.8672 9.16764 17.353 8.97131 17.8538 8.83371V8.83414C18.1793 8.74311 18.4038 8.44694 18.4038 8.10925L18.4034 6.53901ZM19.5226 10.5606C17.1386 10.5606 15.1896 12.5096 15.1896 14.8936C15.1896 17.2776 17.1385 19.2253 19.5226 19.2253C21.9066 19.2253 23.8555 17.2776 23.8555 14.8936C23.8555 12.5097 21.9066 10.5606 19.5226 10.5606ZM19.5226 12.0654C21.094 12.0654 22.3545 13.3222 22.3545 14.8936C22.3545 16.4651 21.094 17.721 19.5226 17.721C17.9511 17.721 16.6943 16.4655 16.6943 14.8936C16.6943 13.3222 17.9511 12.0654 19.5226 12.0654Z" fill="black"/>
</svg>
